<svg xmlns="http://www.w3.org/2000/svg"  viewBox="0 0 32 32">
    <defs>
        <style>
            .cls-1{fill:#f6cd01;}.cls-2{fill:#866afb;}.cls-3{fill:#fe466c;}.cls-4{fill:#06cbad;}.cls-5{fill:#4592ef;}
        </style>
    </defs>
    <circle class="cls-1" cx="27.75" cy="15.63" r="4.25"/>
    <circle class="cls-2" cx="21.52" cy="6.64" r="4.25"/>
    <circle class="cls-3" cx="10.75" cy="6.63" r="4.25"/>
    <circle class="cls-4" cx="4.25" cy="15.63" r="4.25"/>
    <path class="cls-5"
          d="M23.08,21.44l-.66-.38a4.51,4.51,0,0,1-1.92-3.68,4.5,4.5,0,0,0-9,0,4.51,4.51,0,0,1-1.92,3.68l-.66.38a4.36,4.36,0,0,0-1,.91,9.83,9.83,0,0,0,4.28.32,3.5,3.5,0,0,1,5.24-4.29,7.07,7.07,0,0,0,2-1.26,3.53,3.53,0,0,1-1.14,2.19,6.93,6.93,0,0,0,1.87-.92,7.16,7.16,0,0,1-1.37,2.11c0,.15.07.3.1.44a10.39,10.39,0,0,1-1.57,7.65,3.49,3.49,0,0,1,.53.22l.65.38a4.14,4.14,0,0,0,1.93.43,4.49,4.49,0,0,0,2.57-8.18Z"/>
</svg>